<?xml version="1.0" encoding="UTF-8" standalone="no"?>
<!-- Created with Inkscape (http://www.inkscape.org/) -->

<svg xmlns:dc="http://purl.org/dc/elements/1.1/" xmlns:cc="http://creativecommons.org/ns#" xmlns:rdf="http://www.w3.org/1999/02/22-rdf-syntax-ns#" xmlns:svg="http://www.w3.org/2000/svg" xmlns="http://www.w3.org/2000/svg" xmlns:sodipodi="http://sodipodi.sourceforge.net/DTD/sodipodi-0.dtd" xmlns:inkscape="http://www.inkscape.org/namespaces/inkscape" width="96" height="96" id="svg4874" version="1.1" inkscape:version="0.91 r13725" viewBox="0 0 96 96.000001" sodipodi:docname="copy.svg">
  <defs id="defs4876">
    <inkscape:perspective sodipodi:type="inkscape:persp3d" inkscape:vp_x="0 : 48 : 1" inkscape:vp_y="0 : 1000 : 0" inkscape:vp_z="96 : 48 : 1" inkscape:persp3d-origin="48 : 32 : 1" id="perspective5729" />
  </defs>
  <sodipodi:namedview id="base" pagecolor="#ffffff" bordercolor="#666666" borderopacity="1.0" inkscape:pageopacity="0.0" inkscape:pageshadow="2" inkscape:zoom="5.6294995" inkscape:cx="60.006258" inkscape:cy="47.163229" inkscape:document-units="px" inkscape:current-layer="g4780" showgrid="true" showborder="true" fit-margin-top="0" fit-margin-left="0" fit-margin-right="0" fit-margin-bottom="0" inkscape:snap-bbox="true" inkscape:bbox-paths="true" inkscape:bbox-nodes="true" inkscape:snap-bbox-edge-midpoints="true" inkscape:snap-bbox-midpoints="true" inkscape:object-paths="true" inkscape:snap-intersection-paths="true" inkscape:object-nodes="false" inkscape:snap-smooth-nodes="true" inkscape:snap-midpoints="true" inkscape:snap-object-midpoints="true" inkscape:snap-center="true" showguides="true" inkscape:guide-bbox="true" inkscape:window-width="1867" inkscape:window-height="1056" inkscape:window-x="53" inkscape:window-y="24" inkscape:window-maximized="1" inkscape:snap-others="true">
    <inkscape:grid type="xygrid" id="grid5451" empspacing="8" visible="true" enabled="true" snapvisiblegridlinesonly="true" />
    <sodipodi:guide orientation="1,0" position="8,-8.0000001" id="guide4063" />
    <sodipodi:guide orientation="1,0" position="4,-8.0000001" id="guide4065" />
    <sodipodi:guide orientation="0,1" position="-8,88.000001" id="guide4067" />
    <sodipodi:guide orientation="0,1" position="-8,92.000001" id="guide4069" />
    <sodipodi:guide orientation="0,1" position="104,4" id="guide4071" />
    <sodipodi:guide orientation="0,1" position="48,0" id="guide4073" />
    <sodipodi:guide orientation="1,0" position="92,-8.0000001" id="guide4075" />
    <sodipodi:guide orientation="1,0" position="88,-8.0000001" id="guide4077" />
    <sodipodi:guide orientation="0,1" position="-8,84.000001" id="guide4074" />
    <sodipodi:guide orientation="1,0" position="12,-8.0000001" id="guide4076" />
    <sodipodi:guide orientation="0,1" position="-5,12" id="guide4078" />
    <sodipodi:guide orientation="1,0" position="84,-9.0000001" id="guide4080" />
    <sodipodi:guide position="48,-8.0000001" orientation="1,0" id="guide4170" />
    <sodipodi:guide position="-8,48" orientation="0,1" id="guide4172" />
  </sodipodi:namedview>
  <metadata id="metadata4879">
    <rdf:RDF>
      <cc:Work rdf:about="">
        <dc:format>image/svg+xml</dc:format>
        <dc:type rdf:resource="http://purl.org/dc/dcmitype/StillImage" />
        <dc:title />
      </cc:Work>
    </rdf:RDF>
  </metadata>
  <g inkscape:label="Layer 1" inkscape:groupmode="layer" id="layer1" transform="translate(67.857146,-78.50504)">
    <g transform="matrix(0,-1,-1,0,373.50506,516.50504)" id="g4845" style="display:inline">
      <g inkscape:export-ydpi="90" inkscape:export-xdpi="90" inkscape:export-filename="next01.png" transform="matrix(-0.9996045,0,0,1,575.94296,-611.00001)" id="g4778" inkscape:label="Layer 1">
        <g transform="matrix(-1,0,0,1,575.99999,611)" id="g4780" style="display:inline">
          <rect style="color:#000000;display:inline;overflow:visible;visibility:visible;fill:none;stroke:none;stroke-width:4;marker:none;enable-background:accumulate" id="rect4782" width="96.037987" height="96" x="-438.00244" y="345.36221" transform="scale(-1,1)" />
          <path style="display:inline;opacity:1;fill:#808080;fill-opacity:1;stroke:none;stroke-width:1;stroke-linejoin:bevel;stroke-miterlimit:4;stroke-dasharray:none;stroke-opacity:1" d="m 434.00087,407.36222 a 30.011869,30 0 0 1 -30.01187,30 30.011869,30 0 0 1 -30.01187,-30 30.011869,30 0 0 1 30.01187,-30 30.011869,30 0 0 1 30.01187,30 z m -4.00158,0 a 26.010287,26 0 0 0 -26.01029,-26 26.010287,26 0 0 0 -26.01029,26 26.010287,26 0 0 0 26.01029,26 26.010287,26 0 0 0 26.01029,-26 z" id="path4921-0" inkscape:connector-curvature="0" />
          <path style="display:inline;opacity:1;fill:#808080;fill-opacity:1;stroke:none;stroke-width:1;stroke-linejoin:bevel;stroke-miterlimit:4;stroke-dasharray:none;stroke-opacity:1" d="M 63.931641 32.068359 A 30 30 0 0 1 64 34 A 30 30 0 0 1 63.894531 36.095703 A 26 26 0 0 1 88 62 A 26 26 0 0 1 62 88 A 26 26 0 0 1 36.074219 63.927734 A 30 30 0 0 1 34 64 A 30 30 0 0 1 32.095703 63.904297 A 30 29.999999 0 0 0 62 92 A 30 29.999999 0 0 0 92 62 A 30 29.999999 0 0 0 63.931641 32.068359 z " transform="matrix(0,-1,-1.0003957,0,438.00245,441.36222)" id="path4921-0-1" />
        </g>
      </g>
    </g>
  </g>
</svg>
