<?xml version="1.0" encoding="UTF-8" standalone="no"?>
<svg
   height="16px"
   viewBox="0 0 16 16"
   width="16px"
   version="1.1"
   id="svg10"
   sodipodi:docname="e-symbolic.svg"
   inkscape:version="1.2.2 (b0a8486541, 2022-12-01)"
   xmlns:inkscape="http://www.inkscape.org/namespaces/inkscape"
   xmlns:sodipodi="http://sodipodi.sourceforge.net/DTD/sodipodi-0.dtd"
   xmlns="http://www.w3.org/2000/svg"
   xmlns:svg="http://www.w3.org/2000/svg">
  <sodipodi:namedview
     id="namedview6"
     pagecolor="#ffffff"
     bordercolor="#000000"
     borderopacity="0.25"
     inkscape:showpageshadow="2"
     inkscape:pageopacity="0.0"
     inkscape:pagecheckerboard="0"
     inkscape:deskcolor="#d1d1d1"
     showgrid="true"
     inkscape:zoom="45.254834"
     inkscape:cx="6.4081552"
     inkscape:cy="7.8665629"
     inkscape:window-width="1920"
     inkscape:window-height="1011"
     inkscape:window-x="0"
     inkscape:window-y="0"
     inkscape:window-maximized="1"
     inkscape:current-layer="svg10">
    <inkscape:grid
       type="xygrid"
       id="grid1515"
       spacingx="0.5"
       spacingy="0.5"
       empspacing="2"
       empcolor="#0099e5"
       empopacity="0.74117647" />
  </sodipodi:namedview>
  <defs
     id="defs14">
    <inkscape:path-effect
       effect="join_type"
       id="path-effect2077"
       is_visible="true"
       lpeversion="1"
       linecap_type="butt"
       line_width="1.00009"
       linejoin_type="extrp_arc"
       miter_limit="100"
       attempt_force_join="true" />
  </defs>
  <path
     inkscape:connector-curvature="0"
     d="M 3.8214285,5.1875 V 13.625 H 12.178572 V 5.1875 h 1.857142 v 8.4375 c 0,1.875 -1.857142,1.875 -1.857142,1.875 H 3.8214285 C 1.9642857,15.5 1.9642857,13.625 1.9642857,13.625 V 5.1875 Z m 3.714295,0.9375 h 0.92859 v 5.625 h -0.92859 z m 1.857143,0 H 10.321456 V 11.75 H 9.3928665 Z m -3.7142858,0 H 6.6071429 V 11.75 H 5.6785807 Z M 4.75,0.5 C 2.8928571,0.5 2.8928571,2.375 2.8928571,2.375 H 1.0357143 V 4.25 H 14.964286 V 2.375 H 13.107143 C 13.107143,0.5 11.25,0.5 11.25,0.5 Z m 0,0.9375 h 6.5 V 2.375 h -6.5 z"
     id="path3799"
     style="fill:#bebebe;fill-opacity:1;stroke:none;stroke-width:0.933025" />
</svg>
