<?xml version="1.0" encoding="UTF-8"?>
<svg height="16px" viewBox="0 0 16 16" width="16px" xmlns="http://www.w3.org/2000/svg" xmlns:xlink="http://www.w3.org/1999/xlink">
    <filter id="a" height="100%" width="100%" x="0%" y="0%">
        <feColorMatrix in="SourceGraphic" type="matrix" values="0 0 0 0 1 0 0 0 0 1 0 0 0 0 1 0 0 0 1 0"/>
    </filter>
    <mask id="b">
        <g filter="url(#a)">
            <rect fill-opacity="0.52803" height="16" width="16"/>
        </g>
    </mask>
    <clipPath id="c">
        <rect height="152" width="192"/>
    </clipPath>
    <mask id="d">
        <g filter="url(#a)">
            <rect fill-opacity="0.52803" height="16" width="16"/>
        </g>
    </mask>
    <clipPath id="e">
        <rect height="152" width="192"/>
    </clipPath>
    <mask id="f">
        <g filter="url(#a)">
            <rect fill-opacity="0.52803" height="16" width="16"/>
        </g>
    </mask>
    <clipPath id="g">
        <rect height="152" width="192"/>
    </clipPath>
    <mask id="h">
        <g filter="url(#a)">
            <rect fill-opacity="0.52803" height="16" width="16"/>
        </g>
    </mask>
    <clipPath id="i">
        <rect height="152" width="192"/>
    </clipPath>
    <mask id="j">
        <g filter="url(#a)">
            <rect fill-opacity="0.52803" height="16" width="16"/>
        </g>
    </mask>
    <clipPath id="k">
        <rect height="152" width="192"/>
    </clipPath>
    <mask id="l">
        <g filter="url(#a)">
            <rect fill-opacity="0.52803" height="16" width="16"/>
        </g>
    </mask>
    <clipPath id="m">
        <rect height="152" width="192"/>
    </clipPath>
    <g clip-path="url(#c)" mask="url(#b)" transform="matrix(1 0 0 1 -168 -16)">
        <path d="m 54.539062 46.5625 l 3.863282 -1.035156 l 2.589844 9.660156 l -3.863282 1.035156 z m 0 0" fill="#3d3846"/>
    </g>
    <g clip-path="url(#e)" mask="url(#d)" transform="matrix(1 0 0 1 -168 -16)">
        <path d="m 85.597656 45.527344 l 3.863282 1.035156 l -2.589844 9.660156 l -3.863282 -1.035156 z m 0 0" fill="#3d3846"/>
    </g>
    <g clip-path="url(#g)" mask="url(#f)" transform="matrix(1 0 0 1 -168 -16)">
        <path d="m 113.011719 60.160156 l 2.828125 2.828125 l -7.070313 7.070313 l -2.828125 -2.828125 z m 0 0" fill="#3d3846"/>
    </g>
    <g clip-path="url(#i)" mask="url(#h)" transform="matrix(1 0 0 1 -168 -16)">
        <path d="m 28.160156 62.988281 l 2.828125 -2.828125 l 7.070313 7.070313 l -2.828125 2.828125 z m 0 0" fill="#3d3846"/>
    </g>
    <g clip-path="url(#k)" mask="url(#j)" transform="matrix(1 0 0 1 -168 -16)">
        <path d="m 13.527344 90.402344 l 1.035156 -3.863282 l 9.660156 2.589844 l -1.035156 3.863282 z m 0 0" fill="#3d3846"/>
    </g>
    <g clip-path="url(#m)" mask="url(#l)" transform="matrix(1 0 0 1 -168 -16)">
        <path d="m 129.4375 86.539062 l 1.035156 3.863282 l -9.660156 2.589844 l -1.035156 -3.863282 z m 0 0" fill="#3d3846"/>
    </g>
    <path d="m 8 3 c -3.855469 0 -7 3.144531 -7 7 v 1 h 2 v -1 h 10 v 1 h 2 v -1 c 0 -3.855469 -3.144531 -7 -7 -7 z m 0 2 c 2.429688 0 4.441406 1.710938 4.898438 4 h -9.796876 c 0.457032 -2.289062 2.46875 -4 4.898438 -4 z m 0 0" fill="#241f31"/>
</svg>
